<?xml version="1.0" encoding="utf-8"?>
<!-- Generator: Adobe Illustrator 18.0.0, SVG Export Plug-In . SVG Version: 6.00 Build 0)  -->
<!DOCTYPE svg PUBLIC "-//W3C//DTD SVG 1.1//EN" "http://www.w3.org/Graphics/SVG/1.1/DTD/svg11.dtd">
<svg version="1.1" id="图层_1" xmlns="http://www.w3.org/2000/svg" xmlns:xlink="http://www.w3.org/1999/xlink" x="0px" y="0px"
	 viewBox="0 0 480 480" enable-background="new 0 0 480 480" xml:space="preserve">
<path fill="#43D669" d="M227.4,344.2c1.5-5.6,3.7-12.1,6.9-19.1c2.5-5.3,5.1-10,7.7-13.9c1.9-1.3,6-3.5,11.4-3.5
	c0.6,0.1,3,0,4.7,0.6c5.6,1.9,9.1,10.7,9.3,21.5c1.7,0.2,10.3,1.4,15,8.6c1.3,1.9,3,4.7,2.5,7.8c-1.1,5.5-8.6,8.4-17.4,11.6
	c-5.5,2-10.1,3.1-13.4,3.7c10.1,3.4,20,6.8,30,10.4c0.7,0.9,4.5,6.4,2.7,12.2c-1.4,4.4-5.3,6.5-9.4,8.8c-4.5,2.4-8.6,3.3-11.2,3.5
	c0,2.3-0.2,5.9-1.8,10.1c-1.4,3.3-3.4,7.9-7.9,9.3c-4.6,1.3-8.8-1.6-9.4-2.1c-1.2-0.8-2.7-2.2-6-8.9c-1.3-2.6-3-6.2-4.7-10.8
	c0.9,5.5,1.6,12.3,1.3,19.8c-0.2,3.7-0.5,7.3-1,10.3c-6.3,2.7-12.7,5.3-18.9,8c3.1-3.2,8.8-9.8,11.8-19.9c2.3-7.9,2-14.8,1.6-19
	c-4,7.7-8,15.3-12,23.1c-5.2,4.5-11.5,6.4-16.3,4.2c-4.1-1.8-6.1-6.3-7.7-9.9c-1.7-3.9-2.3-7.4-2.5-9.7c-10-0.7-17.5-5.2-18.7-10.8
	c-0.5-2.5,0.2-4.8,0.3-5.3c1.9-5.9,7.9-8.1,8.8-8.4c8.1-3.8,16-7.6,24.1-11.4c-4.9-1.6-10.2-3.7-15.8-6.1c-5.1-2.4-9.8-4.8-14-7.2
	c-4.4-5-5.9-11.4-3.6-16c2.1-4.2,6.9-6,9.7-7c4-1.4,7.7-1.3,9.8-1.2c1-9.3,5.5-16.4,11.7-18.1c0.8-0.3,2.7-0.7,5.1-0.1
	c3.1,0.7,6.4,3.3,12.2,18C223.3,331.5,225.5,337.2,227.4,344.2z"/>
<path fill="#B0DFF8" d="M103.9,388.7c-6.8-0.8-16.6-2.7-27.8-6.9c-11.5-4.5-24.4-9.4-34.7-21.4c-5.1-6-8.2-13-14.5-26.9
	c-5.2-11.7-7.8-17.5-8-22.2c-0.9-18.6,20.4-33.6,27.9-38.5c8.8-14.5,11.8-26.7,12.9-35.5c1-7.1,0.3-9.6,1.4-22.7
	c1.1-12.4,2.6-21.5,4-30.5c2-11.6,4.7-27.7,10.6-47.2c7.1-23.8,9-19.5,11.6-32.9c1.8-9.2,6.8-35.5-8.1-56c-3.4-4.7-7-7.8-9.6-9.9
	c-0.4-2.7-0.7-5.2-1.1-7.8c2.1-2.6,7.8-8.5,17.1-11.4c11.8-3.7,21.8,0,24.7,1.1c4.4,3.4,9.2,7.8,14,13.2
	c10.7,12.2,8.6,27.1,19.5,33.4c2.9,19.9,3.3,34.1,11.5,44.3c10.8-0.1,17.4-11.4,39.4-26c10.3-6.1,20.6-12.2,30.8-18.3
	c-5.5-3.7-13.4-10.6-17.2-21.1c-1.5-4.1-3.3-9-1-13c3.3-6.1,13.5-6.2,20.2-6.1c8.8,0,24.3,1.5,43.2,12.5c14.4,0,30.7,0.8,48.7,3.5
	c14.6,2.1,25,0.3,35.6,7c7.5,4.9,12,11.2,14.7,15.9c10.8,4.5,20.8,11.1,22.9,22.5c2.1,10.2-1.9,21.1-10.3,27.7
	c-0.9,13.8-3.5,32.8-10,54.3c-4.6,15.3-11.6,38.2-27.7,60.5c-27.2,37.5-65.1,52.2-90.7,62.1c-17.2,6.5-43.3,14.6-77,16.8
	c-4,2.7-14.6,11.2-19.3,26.3c-2.8,9.3-2.4,17.3-1.6,22c7.2,18.3,14.4,36.6,21.8,54.8c3.6,20.2,0.8,35.5-4.6,36.9
	c-5.3,1.4-15-9.9-22.3-27.6c1.7,12.3,3.5,24.8,5.2,37.1c-2.7,1.1-7,2.4-11.7,1.1c-5.8-1.6-9-6.4-13.4-13.9
	c-7.6-12.6-11.4-18.9-14.5-25.5C113.3,412.6,108.6,401.7,103.9,388.7z"/>
<g>
	<path fill="#F3AECC" d="M324.7,56.6c2,1,4.3,2,6.9,3.3c2.8,1.3,4.3,2,6.9,2.6c0.8,0.3,1.5,0.3,2,0.5c1-0.3,2-0.8,2.3-1.8
		s-1-1.8-1.5-3.1c-0.8-2,0-4.6,1-6.1c2.6-3.6,8.4-3.1,11.7-1.8c1,0.5,4.1,1.5,5.1,4.6c0.3,0.5,0.8,2,0.5,3.8
		c-0.5,2.6-2.6,4.1-2.8,4.3c-1.8,1.5-3.3,1-4.3,2.6c-0.3,0.3-0.5,1.3-0.3,2.3c0.5,1.3,2,1.8,2,1.8c1.8,0.8,3.6,1.3,5.4,2
		c4.6,1.5,8.9,3.1,13,4.1c-1.5,2.6-3.1,5.6-4.6,9.2c-1.3,3.1-2.3,5.9-3.1,8.7c0,0.3,0.5,1.8,1.8,2.6c1,0.5,1.8,0.3,2.6,0
		c1.5-0.5,1.8-1.3,3.1-1.8c2-0.8,4.1,0.3,4.8,0.8c2.3,1,3.6,3.3,4.1,5.4c0.3,1.8-0.3,3.3-0.8,5.4c-0.8,2.3-1.5,4.6-3.8,6.4
		c-0.5,0.3-3.3,2.3-6.1,1.3c-0.3,0-1.3-0.5-2.3-1.3c-1.3-1.3-1.5-2.3-2.3-3.6c-1-1.5-2.8-3.1-3.8-3.1c-1.5,0-4.1,3.1-7.4,17.9
		c-2.8-0.3-5.4-0.8-7.1-1c-5.9-1.3-4.6-1.8-9.9-2.8c-1-0.3-2.3-0.5-3.3-1.5c-1-1-2-2.8-1.5-4.3c0.8-2,3.6-1.5,4.8-3.8
		c1-2.3-0.3-4.8-0.5-5.1c-1.3-2-3.1-2.6-4.6-3.1c-1.8-0.5-4.1-1.3-6.1,0c-2,1.3-3.3,3.6-2.8,5.6c0.3,0.8,0.8,1.3,0.8,2.3
		s-0.5,2.3-1.3,2.8c-1.3,0.8-3.1,0.3-4.6-0.3c-2.3-0.8-6.1-2.6-11-6.1c2-7.1,3.8-14.3,5.9-21.2c1-1.5,2.3-2.3,3.6-2
		c1.3,0.3,2,1.8,2.3,2.3c0.5,1,0.3,1.5,0.8,2.3c0.8,1.5,3.3,2.3,5.1,2.3c3.6-0.3,6.4-4.3,6.1-8.2c-0.3-2.8-1.8-5.1-3.8-6.4
		c-0.8-0.3-1.8-1-3.1-0.8c-1,0-1.3,0.5-2.6,0.8c-0.8,0.3-2,0.3-2.8-0.3c-0.8-0.8-1-2-0.5-3.3C320.4,66.5,322.4,61.4,324.7,56.6z"/>
	<path fill="#F3AECC" d="M179.8,100.9c2,1,4.3,2,6.9,3.3c2.8,1.3,4.3,2,6.9,2.6c0.8,0.3,1.5,0.3,2,0.5c1-0.3,2-0.8,2.3-1.8
		c0.3-1-1-1.8-1.5-3.1c-0.8-2,0-4.6,1-6.1c2.6-3.6,8.4-3.1,11.7-1.8c1,0.5,4.1,1.5,5.1,4.6c0.3,0.5,0.8,2,0.5,3.8
		c-0.5,2.6-2.6,4.1-2.8,4.3c-1.8,1.5-3.3,1-4.3,2.6c-0.3,0.3-0.5,1.3-0.3,2.3c0.5,1.3,2,1.8,2,1.8c1.8,0.8,3.6,1.3,5.4,2
		c4.6,1.5,8.9,3.1,13,4.1c-1.5,2.6-3.1,5.6-4.6,9.2c-1.3,3.1-2.3,5.9-3.1,8.7c0,0.3,0.5,1.8,1.8,2.6c1,0.5,1.8,0.3,2.6,0
		c1.5-0.5,1.8-1.3,3.1-1.8c2-0.8,4.1,0.3,4.8,0.8c2.3,1,3.6,3.3,4.1,5.4c0.3,1.8-0.3,3.3-0.8,5.4c-0.8,2.3-1.5,4.6-3.8,6.4
		c-0.5,0.3-3.3,2.3-6.1,1.3c-0.3,0-1.3-0.5-2.3-1.3c-1.3-1.3-1.5-2.3-2.3-3.6c-1-1.5-2.8-3.1-3.8-3.1c-1.5,0-4.1,3.1-7.4,17.9
		c-2.8-0.3-5.4-0.8-7.1-1c-5.9-1.3-4.6-1.8-9.9-2.8c-1-0.3-2.3-0.5-3.3-1.5c-1-1-2-2.8-1.5-4.3c0.8-2,3.6-1.5,4.8-3.8
		c1-2.3-0.3-4.8-0.5-5.1c-1.3-2-3.1-2.6-4.6-3.1c-1.8-0.5-4.1-1.3-6.1,0s-3.3,3.6-2.8,5.6c0.3,0.8,0.8,1.3,0.8,2.3
		c0,1-0.5,2.3-1.3,2.8c-1.3,0.8-3.1,0.3-4.6-0.3c-2.3-0.8-6.1-2.6-11-6.1c2-7.1,3.8-14.3,5.9-21.2c1-1.5,2.3-2.3,3.6-2
		c1.3,0.3,2,1.8,2.3,2.3c0.5,1,0.3,1.5,0.8,2.3c0.8,1.5,3.3,2.3,5.1,2.3c3.6-0.3,6.4-4.3,6.1-8.2c-0.3-2.8-1.8-5.1-3.8-6.4
		c-0.8-0.3-1.8-1-3.1-0.8c-1,0-1.3,0.5-2.6,0.8c-0.8,0.3-2,0.3-2.8-0.3c-0.8-0.8-1-2-0.5-3.3C175.4,110.8,177.5,105.7,179.8,100.9z"
		/>
	<path fill="#F3AECC" d="M314.4,130.7c2,1,4.3,2,6.9,3.3c2.8,1.3,4.3,2,6.9,2.6c0.8,0.3,1.5,0.3,2,0.5c1-0.3,2-0.8,2.3-1.8
		c0.3-1-1-1.8-1.5-3.1c-0.8-2,0-4.6,1-6.1c2.6-3.6,8.4-3.1,11.7-1.8c1,0.5,4.1,1.5,5.1,4.6c0.3,0.5,0.8,2,0.5,3.8
		c-0.5,2.6-2.6,4.1-2.8,4.3c-1.8,1.5-3.3,1-4.3,2.6c-0.3,0.3-0.5,1.3-0.3,2.3c0.5,1.3,2,1.8,2,1.8c1.8,0.8,3.6,1.3,5.4,2
		c4.6,1.5,8.9,3.1,13,4.1c-1.5,2.6-3.1,5.6-4.6,9.2c-1.3,3.1-2.3,5.9-3.1,8.7c0,0.3,0.5,1.8,1.8,2.6c1,0.5,1.8,0.3,2.6,0
		c1.5-0.5,1.8-1.3,3.1-1.8c2-0.8,4.1,0.3,4.8,0.8c2.3,1,3.6,3.3,4.1,5.4c0.3,1.8-0.3,3.3-0.8,5.4c-0.8,2.3-1.5,4.6-3.8,6.4
		c-0.5,0.3-3.3,2.3-6.1,1.3c-0.3,0-1.3-0.5-2.3-1.3c-1.3-1.3-1.5-2.3-2.3-3.6c-1-1.5-2.8-3.1-3.8-3.1c-1.5,0-4.1,3.1-7.4,17.9
		c-2.8-0.3-5.4-0.8-7.1-1c-5.9-1.3-4.6-1.8-9.9-2.8c-1-0.3-2.3-0.5-3.3-1.5c-1-1-2-2.8-1.5-4.3c0.8-2,3.6-1.5,4.8-3.8
		c1-2.3-0.3-4.8-0.5-5.1c-1.3-2-3.1-2.6-4.6-3.1c-1.8-0.5-4.1-1.3-6.1,0c-2,1.3-3.3,3.6-2.8,5.6c0.3,0.8,0.8,1.3,0.8,2.3
		c0,1-0.5,2.3-1.3,2.8c-1.3,0.8-3.1,0.3-4.6-0.3c-2.3-0.8-6.1-2.6-11-6.1c2-7.1,3.8-14.3,5.9-21.2c1-1.5,2.3-2.3,3.6-2
		c1.3,0.3,2,1.8,2.3,2.3c0.5,1,0.3,1.5,0.8,2.3c0.8,1.5,3.3,2.3,5.1,2.3c3.6-0.3,6.4-4.3,6.1-8.2c-0.3-2.8-1.8-5.1-3.8-6.4
		c-0.8-0.3-1.8-1-3.1-0.8c-1,0-1.3,0.5-2.6,0.8c-0.8,0.3-2,0.3-2.8-0.3c-0.8-0.8-1-2-0.5-3.3C310.1,140.7,312.1,135.6,314.4,130.7z"
		/>
	<path fill="#F3AECC" d="M242.9,121.1c2,1,4.3,2,6.9,3.3c2.8,1.3,4.3,2,6.9,2.6c0.8,0.3,1.5,0.3,2,0.5c1-0.3,2-0.8,2.3-1.8
		c0.3-1-1-1.8-1.5-3.1c-0.8-2,0-4.6,1-6.1c2.6-3.6,8.4-3.1,11.7-1.8c1,0.5,4.1,1.5,5.1,4.6c0.3,0.5,0.8,2,0.5,3.8
		c-0.5,2.6-2.6,4.1-2.8,4.3c-1.8,1.5-3.3,1-4.3,2.6c-0.3,0.3-0.5,1.3-0.3,2.3c0.5,1.3,2,1.8,2,1.8c1.8,0.8,3.6,1.3,5.4,2
		c4.6,1.5,8.9,3.1,13,4.1c-1.5,2.6-3.1,5.6-4.6,9.2c-1.3,3.1-2.3,5.9-3.1,8.7c0,0.3,0.5,1.8,1.8,2.6c1,0.5,1.8,0.3,2.6,0
		c1.5-0.5,1.8-1.3,3.1-1.8c2-0.8,4.1,0.3,4.8,0.8c2.3,1,3.6,3.3,4.1,5.4c0.3,1.8-0.3,3.3-0.8,5.4c-0.8,2.3-1.5,4.6-3.8,6.4
		c-0.5,0.3-3.3,2.3-6.1,1.3c-0.3,0-1.3-0.5-2.3-1.3c-1.3-1.3-1.5-2.3-2.3-3.6c-1-1.5-2.8-3.1-3.8-3.1c-1.5,0-4.1,3.1-7.4,17.9
		c-2.8-0.3-5.4-0.8-7.1-1c-5.9-1.3-4.6-1.8-9.9-2.8c-1-0.3-2.3-0.5-3.3-1.5c-1-1-2-2.8-1.5-4.3c0.8-2,3.6-1.5,4.8-3.8
		c1-2.3-0.3-4.8-0.5-5.1c-1.3-2-3.1-2.6-4.6-3.1c-1.8-0.5-4.1-1.3-6.1,0c-2,1.3-3.3,3.6-2.8,5.6c0.3,0.8,0.8,1.3,0.8,2.3
		c0,1-0.5,2.3-1.3,2.8c-1.3,0.8-3.1,0.3-4.6-0.3c-2.3-0.8-6.1-2.6-11-6.1c2-7.1,3.8-14.3,5.9-21.2c1-1.5,2.3-2.3,3.6-2
		c1.3,0.3,2,1.8,2.3,2.3c0.5,1,0.3,1.5,0.8,2.3c0.8,1.5,3.3,2.3,5.1,2.3c3.6-0.3,6.4-4.3,6.1-8.2c-0.3-2.8-1.8-5.1-3.8-6.4
		c-0.8-0.3-1.8-1-3.1-0.8c-1,0-1.3,0.5-2.6,0.8c-0.8,0.3-2,0.3-2.8-0.3c-0.8-0.8-1-2-0.5-3.3C238.5,131,240.6,125.9,242.9,121.1z"/>
	<path fill="#F3AECC" d="M97.3,93.6c2,1,4.3,2,6.9,3.3c2.8,1.3,4.3,2,6.9,2.6c0.8,0.3,1.5,0.3,2,0.5c1-0.3,2-0.8,2.3-1.8
		c0.3-1-1-1.8-1.5-3.1c-0.8-2,0-4.6,1-6.1c2.6-3.6,8.4-3.1,11.7-1.8c1,0.5,4.1,1.5,5.1,4.6c0.3,0.5,0.8,2,0.5,3.8
		c-0.5,2.6-2.6,4.1-2.8,4.3c-1.8,1.5-3.3,1-4.3,2.6c-0.3,0.3-0.5,1.3-0.3,2.3c0.5,1.3,2,1.8,2,1.8c1.8,0.8,3.6,1.3,5.4,2
		c4.6,1.5,8.9,3.1,13,4.1c-1.5,2.6-3.1,5.6-4.6,9.2c-1.3,3.1-2.3,5.9-3.1,8.7c0,0.3,0.5,1.8,1.8,2.6c1,0.5,1.8,0.3,2.6,0
		c1.5-0.5,1.8-1.3,3.1-1.8c2-0.8,4.1,0.3,4.8,0.8c2.3,1,3.6,3.3,4.1,5.4c0.3,1.8-0.3,3.3-0.8,5.4c-0.8,2.3-1.5,4.6-3.8,6.4
		c-0.5,0.3-3.3,2.3-6.1,1.3c-0.3,0-1.3-0.5-2.3-1.3c-1.3-1.3-1.5-2.3-2.3-3.6c-1-1.5-2.8-3.1-3.8-3.1c-1.5,0-4.1,3.1-7.4,17.9
		c-2.8-0.3-5.4-0.8-7.1-1c-5.9-1.3-4.6-1.8-9.9-2.8c-1-0.3-2.3-0.5-3.3-1.5c-1-1-2-2.8-1.5-4.3c0.8-2,3.6-1.5,4.8-3.8
		c1-2.3-0.3-4.8-0.5-5.1c-1.3-2-3.1-2.6-4.6-3.1c-1.8-0.5-4.1-1.3-6.1,0c-2,1.3-3.3,3.6-2.8,5.6c0.3,0.8,0.8,1.3,0.8,2.3
		c0,1-0.5,2.3-1.3,2.8c-1.3,0.8-3.1,0.3-4.6-0.3c-2.3-0.8-6.1-2.6-11-6.1c2-7.1,3.8-14.3,5.9-21.2c1-1.5,2.3-2.3,3.6-2
		c1.3,0.3,2,1.8,2.3,2.3c0.5,1,0.3,1.5,0.8,2.3c0.8,1.5,3.3,2.3,5.1,2.3c3.6-0.3,6.4-4.3,6.1-8.2c-0.3-2.8-1.8-5.1-3.8-6.4
		c-0.8-0.3-1.8-1-3.1-0.8c-1,0-1.3,0.5-2.6,0.8c-0.8,0.3-2,0.3-2.8-0.3c-0.8-0.8-1-2-0.5-3.3C93,103.6,95,98.5,97.3,93.6z"/>
	<path fill="#F3AECC" d="M242.9,46.9c2,1,4.3,2,6.9,3.3c2.8,1.3,4.3,2,6.9,2.6c0.8,0.3,1.5,0.3,2,0.5c1-0.3,2-0.8,2.3-1.8
		s-1-1.8-1.5-3.1c-0.8-2,0-4.6,1-6.1c2.6-3.6,8.4-3.1,11.7-1.8c1,0.5,4.1,1.5,5.1,4.6c0.3,0.5,0.8,2,0.5,3.8
		c-0.5,2.6-2.6,4.1-2.8,4.3c-1.8,1.5-3.3,1-4.3,2.6c-0.3,0.3-0.5,1.3-0.3,2.3c0.5,1.3,2,1.8,2,1.8c1.8,0.8,3.6,1.3,5.4,2
		c4.6,1.5,8.9,3.1,13,4.1c-1.5,2.6-3.1,5.6-4.6,9.2c-1.3,3.1-2.3,5.9-3.1,8.7c0,0.3,0.5,1.8,1.8,2.6c1,0.5,1.8,0.3,2.6,0
		c1.5-0.5,1.8-1.3,3.1-1.8c2-0.8,4.1,0.3,4.8,0.8c2.3,1,3.6,3.3,4.1,5.4c0.3,1.8-0.3,3.3-0.8,5.4c-0.8,2.3-1.5,4.6-3.8,6.4
		c-0.5,0.3-3.3,2.3-6.1,1.3c-0.3,0-1.3-0.5-2.3-1.3c-1.3-1.3-1.5-2.3-2.3-3.6c-1-1.5-2.8-3.1-3.8-3.1c-1.5,0-4.1,3.1-7.4,17.9
		c-2.8-0.3-5.4-0.8-7.1-1c-5.9-1.3-4.6-1.8-9.9-2.8c-1-0.3-2.3-0.5-3.3-1.5c-1-1-2-2.8-1.5-4.3c0.8-2,3.6-1.5,4.8-3.8
		c1-2.3-0.3-4.8-0.5-5.1c-1.3-2-3.1-2.6-4.6-3.1c-1.8-0.5-4.1-1.3-6.1,0c-2,1.3-3.3,3.6-2.8,5.6c0.3,0.8,0.8,1.3,0.8,2.3
		s-0.5,2.3-1.3,2.8c-1.3,0.8-3.1,0.3-4.6-0.3c-2.3-0.8-6.1-2.6-11-6.1c2-7.1,3.8-14.3,5.9-21.2c1-1.5,2.3-2.3,3.6-2
		c1.3,0.3,2,1.8,2.3,2.3c0.5,1,0.3,1.5,0.8,2.3c0.8,1.5,3.3,2.3,5.1,2.3c3.6-0.3,6.4-4.3,6.1-8.2c-0.3-2.8-1.8-5.1-3.8-6.4
		c-0.8-0.3-1.8-1-3.1-0.8c-1,0-1.3,0.5-2.6,0.8c-0.8,0.3-2,0.3-2.8-0.3c-0.8-0.8-1-2-0.5-3.3C238.5,56.8,240.6,51.7,242.9,46.9z"/>
	<path fill="#F3AECC" d="M193.7,178.6c2,1,4.3,2,6.9,3.3c2.8,1.3,4.3,2,6.9,2.6c0.8,0.3,1.5,0.3,2,0.5c1-0.3,2-0.8,2.3-1.8
		c0.3-1-1-1.8-1.5-3.1c-0.8-2,0-4.6,1-6.1c2.6-3.6,8.4-3.1,11.7-1.8c1,0.5,4.1,1.5,5.1,4.6c0.3,0.5,0.8,2,0.5,3.8
		c-0.5,2.6-2.6,4.1-2.8,4.3c-1.8,1.5-3.3,1-4.3,2.6c-0.3,0.3-0.5,1.3-0.3,2.3c0.5,1.3,2,1.8,2,1.8c1.8,0.8,3.6,1.3,5.4,2
		c4.6,1.5,8.9,3.1,13,4.1c-1.5,2.6-3.1,5.6-4.6,9.2c-1.3,3.1-2.3,5.9-3.1,8.7c0,0.3,0.5,1.8,1.8,2.6c1,0.5,1.8,0.3,2.6,0
		c1.5-0.5,1.8-1.3,3.1-1.8c2-0.8,4.1,0.3,4.8,0.8c2.3,1,3.6,3.3,4.1,5.4c0.3,1.8-0.3,3.3-0.8,5.4c-0.8,2.3-1.5,4.6-3.8,6.4
		c-0.5,0.3-3.3,2.3-6.1,1.3c-0.3,0-1.3-0.5-2.3-1.3c-1.3-1.3-1.5-2.3-2.3-3.6c-1-1.5-2.8-3.1-3.8-3.1c-1.5,0-4.1,3.1-7.4,17.9
		c-2.8-0.3-5.4-0.8-7.1-1c-5.9-1.3-4.6-1.8-9.9-2.8c-1-0.3-2.3-0.5-3.3-1.5c-1-1-2-2.8-1.5-4.3c0.8-2,3.6-1.5,4.8-3.8
		c1-2.3-0.3-4.8-0.5-5.1c-1.3-2-3.1-2.6-4.6-3.1c-1.8-0.5-4.1-1.3-6.1,0c-2,1.3-3.3,3.6-2.8,5.6c0.3,0.8,0.8,1.3,0.8,2.3
		c0,1-0.5,2.3-1.3,2.8c-1.3,0.8-3.1,0.3-4.6-0.3c-2.3-0.8-6.1-2.6-11-6.1c2-7.1,3.8-14.3,5.9-21.2c1-1.5,2.3-2.3,3.6-2
		c1.3,0.3,2,1.8,2.3,2.3c0.5,1,0.3,1.5,0.8,2.3c0.8,1.5,3.3,2.3,5.1,2.3c3.6-0.3,6.4-4.3,6.1-8.2c-0.3-2.8-1.8-5.1-3.8-6.4
		c-0.8-0.3-1.8-1-3.1-0.8c-1,0-1.3,0.5-2.6,0.8c-0.8,0.3-2,0.3-2.8-0.3c-0.8-0.8-1-2-0.5-3.3C189.3,188.5,191.4,183.4,193.7,178.6z"
		/>
	<path fill="#F3AECC" d="M267.5,188.3c2,1,4.3,2,6.9,3.3c2.8,1.3,4.3,2,6.9,2.6c0.8,0.3,1.5,0.3,2,0.5c1-0.3,2-0.8,2.3-1.8
		c0.3-1-1-1.8-1.5-3.1c-0.8-2,0-4.6,1-6.1c2.6-3.6,8.4-3.1,11.7-1.8c1,0.5,4.1,1.5,5.1,4.6c0.3,0.5,0.8,2,0.5,3.8
		c-0.5,2.6-2.6,4.1-2.8,4.3c-1.8,1.5-3.3,1-4.3,2.6c-0.3,0.3-0.5,1.3-0.3,2.3c0.5,1.3,2,1.8,2,1.8c1.8,0.8,3.6,1.3,5.4,2
		c4.6,1.5,8.9,3.1,13,4.1c-1.5,2.6-3.1,5.6-4.6,9.2c-1.3,3.1-2.3,5.9-3.1,8.7c0,0.3,0.5,1.8,1.8,2.6c1,0.5,1.8,0.3,2.6,0
		c1.5-0.5,1.8-1.3,3.1-1.8c2-0.8,4.1,0.3,4.8,0.8c2.3,1,3.6,3.3,4.1,5.4c0.3,1.8-0.3,3.3-0.8,5.4c-0.8,2.3-1.5,4.6-3.8,6.4
		c-0.5,0.3-3.3,2.3-6.1,1.3c-0.3,0-1.3-0.5-2.3-1.3c-1.3-1.3-1.5-2.3-2.3-3.6c-1-1.5-2.8-3.1-3.8-3.1c-1.5,0-4.1,3.1-7.4,17.9
		c-2.8-0.3-5.4-0.8-7.1-1c-5.9-1.3-4.6-1.8-9.9-2.8c-1-0.3-2.3-0.5-3.3-1.5c-1-1-2-2.8-1.5-4.3c0.8-2,3.6-1.5,4.8-3.8
		c1-2.3-0.3-4.8-0.5-5.1c-1.3-2-3.1-2.6-4.6-3.1c-1.8-0.5-4.1-1.3-6.1,0c-2,1.3-3.3,3.6-2.8,5.6c0.3,0.8,0.8,1.3,0.8,2.3
		c0,1-0.5,2.3-1.3,2.8c-1.3,0.8-3.1,0.3-4.6-0.3c-2.3-0.8-6.1-2.6-11-6.1c2-7.1,3.8-14.3,5.9-21.2c1-1.5,2.3-2.3,3.6-2
		c1.3,0.3,2,1.8,2.3,2.3c0.5,1,0.3,1.5,0.8,2.3c0.8,1.5,3.3,2.3,5.1,2.3c3.6-0.3,6.4-4.3,6.1-8.2c-0.3-2.8-1.8-5.1-3.8-6.4
		c-0.8-0.3-1.8-1-3.1-0.8c-1,0-1.3,0.5-2.6,0.8c-0.8,0.3-2,0.3-2.8-0.3c-0.8-0.8-1-2-0.5-3.3C263.1,198.3,265.2,193.2,267.5,188.3z"
		/>
	<path fill="#F3AECC" d="M123.1,161.8c2,1,4.3,2,6.9,3.3c2.8,1.3,4.3,2,6.9,2.6c0.8,0.3,1.5,0.3,2,0.5c1-0.3,2-0.8,2.3-1.8
		c0.3-1-1-1.8-1.5-3.1c-0.8-2,0-4.6,1-6.1c2.6-3.6,8.4-3.1,11.7-1.8c1,0.5,4.1,1.5,5.1,4.6c0.3,0.5,0.8,2,0.5,3.8
		c-0.5,2.6-2.6,4.1-2.8,4.3c-1.8,1.5-3.3,1-4.3,2.6c-0.3,0.3-0.5,1.3-0.3,2.3c0.5,1.3,2,1.8,2,1.8c1.8,0.8,3.6,1.3,5.4,2
		c4.6,1.5,8.9,3.1,13,4.1c-1.5,2.6-3.1,5.6-4.6,9.2c-1.3,3.1-2.3,5.9-3.1,8.7c0,0.3,0.5,1.8,1.8,2.6c1,0.5,1.8,0.3,2.6,0
		c1.5-0.5,1.8-1.3,3.1-1.8c2-0.8,4.1,0.3,4.8,0.8c2.3,1,3.6,3.3,4.1,5.4c0.3,1.8-0.3,3.3-0.8,5.4c-0.8,2.3-1.5,4.6-3.8,6.4
		c-0.5,0.3-3.3,2.3-6.1,1.3c-0.3,0-1.3-0.5-2.3-1.3c-1.3-1.3-1.5-2.3-2.3-3.6c-1-1.5-2.8-3.1-3.8-3.1c-1.5,0-4.1,3.1-7.4,17.9
		c-2.8-0.3-5.4-0.8-7.1-1c-5.9-1.3-4.6-1.8-9.9-2.8c-1-0.3-2.3-0.5-3.3-1.5c-1-1-2-2.8-1.5-4.3c0.8-2,3.6-1.5,4.8-3.8
		c1-2.3-0.3-4.8-0.5-5.1c-1.3-2-3.1-2.6-4.6-3.1c-1.8-0.5-4.1-1.3-6.1,0c-2,1.3-3.3,3.6-2.8,5.6c0.3,0.8,0.8,1.3,0.8,2.3
		c0,1-0.5,2.3-1.3,2.8c-1.3,0.8-3.1,0.3-4.6-0.3c-2.3-0.8-6.1-2.6-11-6.1c2-7.1,3.8-14.3,5.9-21.2c1-1.5,2.3-2.3,3.6-2
		c1.3,0.3,2,1.8,2.3,2.3c0.5,1,0.3,1.5,0.8,2.3c0.8,1.5,3.3,2.3,5.1,2.3c3.6-0.3,6.4-4.3,6.1-8.2c-0.3-2.8-1.8-5.1-3.8-6.4
		c-0.8-0.3-1.8-1-3.1-0.8c-1,0-1.3,0.5-2.6,0.8c-0.8,0.3-2,0.3-2.8-0.3c-0.8-0.8-1-2-0.5-3.3C118.8,171.8,120.8,166.7,123.1,161.8z"
		/>
</g>
<path opacity="0.5" fill="#F7CF77" d="M313.4,87c6.7-1.4,16.6-2.7,28.6-2.2c12.4,0.7,26.1,1.2,39.7,9.4c6.7,4.1,11.8,9.8,22.2,21
	c8.7,9.4,12.9,14.1,14.6,18.6c6.7,17.4-8.8,38.3-14.4,45.3c-3.8,16.5-2.8,29.1-1.1,37.8c1.3,7,2.7,9.2,5.8,22
	c2.9,12.1,4.3,21.2,5.8,30.2c1.7,11.6,4.3,27.8,4.8,48.1c0.7,24.8-2.4,21.4-0.7,34.9c1.1,9.3,4.7,35.8,25.3,50.6
	c4.7,3.4,9.1,5.2,12.2,6.4c1.2,2.4,2.3,4.7,3.5,7.1c-1.2,3.2-4.8,10.6-12.6,16.2c-10,7.2-20.7,6.9-23.8,6.7
	c-5.3-1.9-11.2-4.5-17.5-8.2c-14-8.2-16.7-23-29.1-25.6c-9-18-13.9-31.4-24.9-38.5c-10.2,3.5-12.9,16.3-29.2,37.1
	c-7.9,9-15.7,18.1-23.4,27.1c6.4,1.8,16,5.8,23,14.6c2.7,3.4,6,7.5,5.1,12c-1.2,6.8-10.9,10.1-17.3,12.1c-8.4,2.8-23.5,6.2-44.9,1.7
	c-13.6,4.6-29.4,8.9-47.3,12c-14.5,2.6-23.8,7.6-36,4.5c-8.6-2.3-14.9-6.9-18.9-10.5c-11.7-0.9-23.2-4-28.8-14.1
	c-5.2-9.1-4.8-20.6,1-29.6c-3.5-13.4-7-32.2-7.6-54.7c-0.4-15.9-1-39.9,7.3-66.2c14-44.2,45.4-70,66.6-87.5
	c14.2-11.6,36.5-27.5,67.8-40.2c2.9-3.8,10.3-15.2,10-31.1c-0.3-9.7-3.2-17.1-5.4-21.4c-12.6-15.1-25.2-30.2-37.9-45.2
	c-9.7-18-11.9-33.4-7.3-36.5c4.6-3,17.4,4.7,29.8,19.2c-5.5-11.1-11.1-22.4-16.6-33.6c2.2-1.9,5.9-4.5,10.8-4.7
	c6.1-0.3,10.5,3.3,17.1,9c11.2,9.5,16.8,14.4,21.8,19.7C297,67.2,304.9,76.1,313.4,87z"/>
</svg>
